<?xml version="1.0" encoding="UTF-8" standalone="no"?>
<!-- Created with Inkscape (http://www.inkscape.org/) -->

<svg
   xmlns:dc="http://purl.org/dc/elements/1.1/"
   xmlns:cc="http://creativecommons.org/ns#"
   xmlns:rdf="http://www.w3.org/1999/02/22-rdf-syntax-ns#"
   xmlns:svg="http://www.w3.org/2000/svg"
   xmlns="http://www.w3.org/2000/svg"
   xmlns:sodipodi="http://sodipodi.sourceforge.net/DTD/sodipodi-0.dtd"
   xmlns:inkscape="http://www.inkscape.org/namespaces/inkscape"
   width="744.09448819"
   height="1052.3622047"
   id="svg6428"
   version="1.1"
   inkscape:version="0.48.2 r9819"
   inkscape:export-filename="/Users/mfloryan/Documents/gelf.rabbit.appender.logo.png"
   inkscape:export-xdpi="12.02"
   inkscape:export-ydpi="12.02"
   sodipodi:docname="New document 7">
  <defs
     id="defs6430">
    <clipPath
       clipPathUnits="userSpaceOnUse"
       id="clipPath4904">
      <path
         inkscape:connector-curvature="0"
         d="m 0,1600 612,0 L 612,0 0,0 0,1600 z"
         id="path4906" />
    </clipPath>
  </defs>
  <sodipodi:namedview
     id="base"
     pagecolor="#ffffff"
     bordercolor="#666666"
     borderopacity="1.0"
     inkscape:pageopacity="0.0"
     inkscape:pageshadow="2"
     inkscape:zoom="0.51123084"
     inkscape:cx="450.28978"
     inkscape:cy="526.18109"
     inkscape:document-units="px"
     inkscape:current-layer="layer1"
     showgrid="false"
     inkscape:window-width="1227"
     inkscape:window-height="756"
     inkscape:window-x="133"
     inkscape:window-y="7"
     inkscape:window-maximized="0" />
  <metadata
     id="metadata6433">
    <rdf:RDF>
      <cc:Work
         rdf:about="">
        <dc:format>image/svg+xml</dc:format>
        <dc:type
           rdf:resource="http://purl.org/dc/dcmitype/StillImage" />
        <dc:title></dc:title>
      </cc:Work>
    </rdf:RDF>
  </metadata>
  <g
     inkscape:label="Layer 1"
     inkscape:groupmode="layer"
     id="layer1">
    <rect
       style="fill:#ffffff;stroke:none;stroke-width:0.99999994000000003"
       id="rect7324"
       width="479.23563"
       height="481.19168"
       x="146.70476"
       y="269.93674"
       rx="8"
       ry="8" />
    <g
       id="g7326"
       transform="translate(13.005123,-0.92238727)">
      <rect
         ry="8"
         rx="8"
         y="367.14767"
         x="313.92737"
         height="41.020821"
         width="184.59369"
         id="rect7322"
         style="fill:#f26722;fill-opacity:1;stroke:none" />
      <rect
         ry="3"
         y="280.14508"
         x="313.92737"
         height="114.08916"
         width="28.131569"
         id="rect7316"
         style="fill:#f26722;fill-opacity:1;stroke:none"
         rx="3" />
      <rect
         rx="3"
         style="fill:#f26722;fill-opacity:1;stroke:none"
         id="rect7312"
         width="28.131569"
         height="114.08916"
         x="376.74051"
         y="280.14508"
         ry="3" />
      <g
         style="fill:#000000"
         id="g4900"
         transform="matrix(48.100896,0,0,-48.100896,-22545.379,50491.814)">
        <g
           style="fill:#000000"
           clip-path="url(#clipPath4904)"
           id="g4902">
          <g
             style="fill:#000000"
             transform="translate(478.6758,1035.1885)"
             id="g4908">
            <path
               id="path4910"
               style="fill:#000000;fill-opacity:1;fill-rule:nonzero;stroke:none"
               d="M 0,0 C 0.149,0 0.279,0.053 0.388,0.16 0.496,0.267 0.551,0.395 0.551,0.545 0.551,0.695 0.497,0.824 0.39,0.934 0.283,1.041 0.153,1.096 0,1.096 c -0.15,0 -0.278,-0.054 -0.386,-0.16 -0.106,-0.108 -0.16,-0.238 -0.16,-0.391 0,-0.15 0.054,-0.278 0.16,-0.385 C -0.278,0.053 -0.15,0 0,0 m -4.409,0 c 0.149,0 0.278,0.053 0.386,0.16 0.106,0.107 0.16,0.235 0.16,0.385 0,0.15 -0.054,0.279 -0.16,0.389 -0.108,0.107 -0.237,0.162 -0.386,0.162 -0.151,0 -0.279,-0.054 -0.388,-0.16 C -4.905,0.828 -4.96,0.698 -4.96,0.545 -4.96,0.395 -4.905,0.267 -4.797,0.16 -4.688,0.053 -4.56,0 -4.409,0 m 0.569,4.342 -0.373,0 c -0.032,0 -0.082,-0.014 -0.15,-0.039 C -4.433,4.277 -4.481,4.25 -4.51,4.222 L -5.577,3.164 C -5.603,3.139 -5.629,3.091 -5.654,3.022 -5.68,2.954 -5.692,2.904 -5.692,2.872 l 0,-0.297 1.852,0 0,1.767 z M 1.833,6.577 C 1.938,6.577 2.027,6.541 2.099,6.469 2.171,6.397 2.207,6.313 2.207,6.213 l 0,-5.275 C 2.207,0.839 2.171,0.754 2.099,0.684 2.027,0.613 1.938,0.578 1.833,0.578 l -0.358,0 0,-0.033 C 1.475,0.344 1.435,0.153 1.354,-0.027 1.274,-0.207 1.17,-0.363 1.041,-0.494 0.912,-0.625 0.757,-0.729 0.576,-0.807 0.396,-0.885 0.204,-0.924 0,-0.924 c -0.201,0 -0.392,0.039 -0.572,0.117 -0.181,0.078 -0.336,0.182 -0.467,0.313 -0.131,0.131 -0.235,0.287 -0.314,0.467 -0.078,0.18 -0.117,0.371 -0.117,0.572 l 0,0.033 -1.469,0 0,-0.033 c 0,-0.201 -0.04,-0.392 -0.118,-0.572 -0.078,-0.18 -0.182,-0.336 -0.313,-0.467 -0.131,-0.131 -0.287,-0.235 -0.467,-0.313 -0.181,-0.078 -0.371,-0.117 -0.572,-0.117 -0.201,0 -0.392,0.039 -0.572,0.117 -0.181,0.078 -0.336,0.182 -0.467,0.313 -0.131,0.131 -0.236,0.287 -0.314,0.467 -0.078,0.18 -0.117,0.371 -0.117,0.572 l 0,0.033 -0.373,0 c -0.1,0 -0.185,0.037 -0.257,0.109 -0.071,0.071 -0.107,0.155 -0.107,0.251 l 0,1.934 c 0,0.079 0.01,0.161 0.028,0.246 0.02,0.085 0.048,0.169 0.084,0.254 0.037,0.085 0.08,0.166 0.13,0.244 0.049,0.078 0.1,0.143 0.15,0.195 l 1.068,1.062 c 0.051,0.051 0.116,0.102 0.196,0.15 0.08,0.05 0.162,0.092 0.247,0.127 0.084,0.036 0.169,0.063 0.253,0.084 0.085,0.021 0.167,0.032 0.247,0.032 l 0.383,0 0,0.947 c 0,0.1 0.036,0.184 0.107,0.256 0.073,0.072 0.157,0.108 0.252,0.108 l 5.304,0 z"
               inkscape:connector-curvature="0" />
          </g>
        </g>
      </g>
      <text
         sodipodi:linespacing="125%"
         id="text7318"
         y="573.578"
         x="305.76291"
         style="font-size:113.51177979px;font-style:normal;font-variant:normal;font-weight:normal;font-stretch:normal;text-align:start;line-height:125%;letter-spacing:0px;word-spacing:0px;writing-mode:lr-tb;text-anchor:start;fill:#ffffff;fill-opacity:1;stroke:none;font-family:Silom;-inkscape-font-specification:Silom"
         xml:space="preserve"><tspan
           y="573.578"
           x="305.76291"
           id="tspan7320"
           sodipodi:role="line">GELF</tspan></text>
    </g>
  </g>
</svg>
